<svg width="169" height="63" viewBox="0 0 169 63" fill="none" xmlns="http://www.w3.org/2000/svg">
<path d="M169 30.1032C167.858 30.1032 166.814 30.2583 165.87 30.5687C164.925 30.879 163.904 31.4997 162.806 32.4308V62.0688H157.073V17.9997H161.323L162.18 23.198C163.322 21.0256 164.442 19.4738 165.54 18.5428C166.639 17.6118 167.792 17.1462 169 17.1462V30.1032Z" fill="#3470FF"/>
<path d="M154.331 61.6034C153.628 61.9655 153.002 62.2241 152.453 62.3793C151.926 62.5345 151.3 62.6121 150.575 62.6121C148.467 62.6121 147.083 61.0086 146.424 57.8017C145.501 59.4052 144.579 60.6207 143.656 61.4483C142.734 62.2759 141.723 62.6896 140.625 62.6896C139.637 62.6896 138.747 62.1983 137.956 61.2155C137.166 60.2327 136.551 58.9138 136.111 57.2586C135.672 55.6034 135.452 53.7931 135.452 51.8276C135.452 48.5172 135.804 45.9051 136.507 43.9913C137.232 42.0258 138.198 40.4741 139.406 39.3361C140.614 38.1465 142.448 36.7241 144.908 35.0689L145.897 34.3706V34.0603C145.897 29.3016 144.974 26.9223 143.129 26.9223C142.229 26.9223 141.262 27.3878 140.23 28.3189C139.197 29.2499 138.011 30.7499 136.671 32.8189L135.584 23.5085C137.078 21.4913 138.593 19.9137 140.131 18.7757C141.69 17.6378 143.338 17.0688 145.073 17.0688C147.182 17.0688 148.796 18.4137 149.916 21.1033C151.059 23.793 151.63 28.3965 151.63 34.9137V49.6551C151.63 50.7931 151.728 51.6207 151.926 52.1379C152.124 52.6034 152.442 52.8362 152.882 52.8362C153.299 52.8362 153.716 52.7069 154.134 52.4482L154.331 61.6034ZM141.185 50.0431C141.185 51.0775 141.295 51.8276 141.515 52.2931C141.756 52.7586 142.13 52.9913 142.635 52.9913C143.557 52.9913 144.645 52.0603 145.897 50.1982V41.9741L145.403 42.362C143.755 43.7586 142.635 44.9999 142.042 46.0862C141.471 47.1206 141.185 48.4396 141.185 50.0431Z" fill="#3470FF"/>
<path d="M125.712 62.9999C122.988 62.9999 120.682 61.7585 118.793 59.2757C116.904 56.7413 115.487 53.405 114.542 49.2671C113.62 45.0774 113.159 40.5257 113.159 35.6119C113.159 30.7498 113.642 26.2498 114.608 22.1119C115.597 17.9739 117.057 14.6636 118.99 12.1808C120.923 9.69805 123.252 8.45667 125.975 8.45667C128.523 8.45667 130.764 9.62046 132.697 11.9481L131.51 21.7239C130.698 20.7412 129.852 19.9653 128.973 19.3963C128.095 18.7757 127.095 18.4653 125.975 18.4653C124.547 18.4653 123.306 19.2412 122.252 20.7929C121.22 22.2929 120.429 24.3619 119.88 26.9998C119.353 29.586 119.089 32.4826 119.089 35.6895C119.089 40.7585 119.66 44.9223 120.802 48.1809C121.945 51.3878 123.581 52.9912 125.712 52.9912C127.535 52.9912 129.501 51.9309 131.609 49.8102L132.729 59.3533C131.829 60.4395 130.753 61.3189 129.501 61.9913C128.249 62.6637 126.986 62.9999 125.712 62.9999Z" fill="#3470FF"/>
<path d="M103.308 0H109.041V62.0691H103.308V0Z" fill="#101828"/>
<path d="M100.566 61.6034C99.8632 61.9655 99.2372 62.2241 98.6881 62.3793C98.161 62.5345 97.5349 62.6121 96.8101 62.6121C94.7014 62.6121 93.3176 61.0086 92.6587 57.8017C91.7362 59.4052 90.8136 60.6207 89.8911 61.4483C88.9685 62.2759 87.9582 62.6896 86.8599 62.6896C85.8715 62.6896 84.9819 62.1983 84.1911 61.2155C83.4004 60.2327 82.7854 58.9138 82.3461 57.2586C81.9068 55.6034 81.6871 53.7931 81.6871 51.8276C81.6871 48.5172 82.0386 45.9051 82.7414 43.9913C83.4663 42.0258 84.4327 40.4741 85.6408 39.3361C86.8489 38.1465 88.683 36.7241 91.1431 35.0689L92.1315 34.3706V34.0603C92.1315 29.3016 91.209 26.9223 89.3639 26.9223C88.4634 26.9223 87.4969 27.3878 86.4645 28.3189C85.4322 29.2499 84.246 30.7499 82.9062 32.8189L81.8189 23.5085C83.3125 21.4913 84.8281 19.9137 86.3657 18.7757C87.9252 17.6378 89.5726 17.0688 91.3078 17.0688C93.4165 17.0688 95.0309 18.4137 96.1511 21.1033C97.2933 23.793 97.8644 28.3965 97.8644 34.9137V49.6551C97.8644 50.7931 97.9633 51.6207 98.1609 52.1379C98.3586 52.6034 98.6771 52.8362 99.1164 52.8362C99.5338 52.8362 99.9511 52.7069 100.368 52.4482L100.566 61.6034ZM87.42 50.0431C87.42 51.0775 87.5298 51.8276 87.7495 52.2931C87.9911 52.7586 88.3645 52.9913 88.8697 52.9913C89.7922 52.9913 90.8795 52.0603 92.1315 50.1982V41.9741L91.6373 42.362C89.9899 43.7586 88.8697 44.9999 88.2766 46.0862C87.7056 47.1206 87.42 48.4396 87.42 50.0431Z" fill="#101828"/>
<path d="M79.632 59.1985C78.973 60.2847 78.1823 61.1381 77.2597 61.7588C76.3592 62.3278 75.4806 62.6123 74.6239 62.6123C72.2956 62.6123 70.5604 61.4226 69.4182 59.0433C68.276 56.6123 67.7049 53.1467 67.7049 48.6467V27.5432H64.9044V21.8794L68.4298 18.5432L70.0112 6.67249H73.4378V18.0001H78.7094V27.5432H73.4378V45.3881C73.4378 48.1295 73.6245 50.0691 73.9979 51.2071C74.3713 52.345 74.9314 52.914 75.6782 52.914C76.6447 52.914 77.6661 52.2416 78.7424 50.8967L79.632 59.1985Z" fill="#101828"/>
<path d="M55.497 17.0688C57.9351 17.0688 59.6155 18.5947 60.538 21.6464C61.4825 24.6982 61.9548 29.0947 61.9548 34.8361V62.069H56.2219V36.543C56.2219 32.9223 56.0352 30.4137 55.6618 29.0172C55.3103 27.6206 54.6184 26.9223 53.586 26.9223C52.4658 26.9223 51.3236 27.8016 50.1595 29.5603V62.069H44.4266V17.9999H48.6768L49.2699 21.6464C51.4225 18.5947 53.4982 17.0688 55.497 17.0688Z" fill="#101828"/>
<path d="M28.473 42.5172C28.5828 46.1896 28.9672 48.9051 29.6262 50.6638C30.2851 52.4224 31.2955 53.3017 32.6573 53.3017C33.6677 53.3017 34.6013 52.8879 35.4579 52.0603C36.3365 51.181 37.3359 49.8879 38.4561 48.181L40.0047 56.7155C38.8405 58.9396 37.6874 60.5431 36.5452 61.5259C35.403 62.5086 34.0961 63 32.6244 63C30.4498 63 28.6267 62.0172 27.1551 60.0517C25.6834 58.0345 24.5852 55.3189 23.8603 51.9051C23.1574 48.4396 22.806 44.5086 22.806 40.112C22.806 33.1292 23.6407 27.543 25.31 23.3533C26.9794 19.1637 29.4175 17.0688 32.6244 17.0688C35.1724 17.0688 37.1053 18.6982 38.4232 21.9568C39.7631 25.1637 40.444 29.7413 40.4659 35.6896C40.4659 38.0172 40.3232 40.293 40.0376 42.5172H28.473ZM34.8978 33.7499C34.9198 33.4396 34.9307 33.0258 34.9307 32.5085C34.9088 30.3878 34.6672 28.7844 34.2059 27.6982C33.7446 26.5603 33.1076 25.9913 32.2949 25.9913C30.362 25.9913 29.1539 28.5775 28.6707 33.7499H34.8978Z" fill="#101828"/>
<path d="M9.09356 42.6725H5.93058V62.0691H0V9.3103H8.96177C12.1687 9.3103 14.508 10.6034 15.9796 13.1896C17.4513 15.7241 18.1871 19.7327 18.1871 25.2155C18.1871 32.3535 17.0779 37.138 14.8594 39.569L21.1524 62.0691H14.2993L9.09356 42.6725ZM5.93058 32.9742H8.96177C10.1259 32.9742 10.9606 32.4052 11.4658 31.2673C11.993 30.1293 12.2565 28.3707 12.2565 25.9914C12.2565 23.5086 12.0039 21.7241 11.4987 20.6379C10.9935 19.5517 10.1479 19.0086 8.96177 19.0086H5.93058V32.9742Z" fill="#101828"/>
</svg>
